<?xml version="1.0" encoding="UTF-8" standalone="no"?>
<svg
   class="main-svg"
   width="505.11761"
   height="479.00003"
   version="1.1"
   id="svg193"
   sodipodi:docname="Calculation-time-comparison-3D.svg"
   inkscape:version="1.4.2 (f4327f4, 2025-05-13)"
   xmlns:inkscape="http://www.inkscape.org/namespaces/inkscape"
   xmlns:sodipodi="http://sodipodi.sourceforge.net/DTD/sodipodi-0.dtd"
   xmlns="http://www.w3.org/2000/svg"
   xmlns:svg="http://www.w3.org/2000/svg">
  <sodipodi:namedview
     id="namedview193"
     pagecolor="#ffffff"
     bordercolor="#000000"
     borderopacity="0.25"
     inkscape:showpageshadow="2"
     inkscape:pageopacity="0.0"
     inkscape:pagecheckerboard="0"
     inkscape:deskcolor="#d1d1d1"
     inkscape:zoom="1.5761719"
     inkscape:cx="252.51053"
     inkscape:cy="235.69765"
     inkscape:window-width="1920"
     inkscape:window-height="1009"
     inkscape:window-x="-8"
     inkscape:window-y="-8"
     inkscape:window-maximized="1"
     inkscape:current-layer="g193" />
  <defs
     id="defs-9450dd">
    <g
       class="clips"
       id="g5">
      <clipPath
         id="clip9450ddxyplot"
         class="plotclip">
        <rect
           width="471.07043"
           height="427.61008"
           id="rect2"
           x="0"
           y="0" />
      </clipPath>
      <clipPath
         class="axesclip"
         id="clip9450ddx">
        <rect
           x="36.992565"
           y="0"
           width="471.07043"
           height="512"
           id="rect3" />
      </clipPath>
      <clipPath
         class="axesclip"
         id="clip9450ddy">
        <rect
           x="0"
           y="36.43325"
           width="512"
           height="427.61008"
           id="rect4" />
      </clipPath>
      <clipPath
         class="axesclip"
         id="clip9450ddxy">
        <rect
           x="36.992565"
           y="36.43325"
           width="471.07043"
           height="427.61008"
           id="rect5" />
      </clipPath>
    </g>
    <g
       class="gradients"
       id="g6" />
    <g
       class="patterns"
       id="g7" />
  </defs>
  <g
     class="bglayer"
     id="g8"
     transform="translate(-2.9453833,-20)" />
  <g
     class="layer-below"
     id="g11"
     transform="translate(-2.9453833,-20)">
    <g
       class="imagelayer"
       id="g9" />
    <g
       class="shapelayer"
       id="g10" />
  </g>
  <g
     class="cartesianlayer"
     id="g151"
     transform="translate(-2.9453833,-20)">
    <g
       class="subplot xy"
       id="g150">
      <g
         class="layer-subplot"
         id="g14">
        <g
           class="shapelayer"
           id="g12" />
        <g
           class="imagelayer"
           id="g13" />
      </g>
      <g
         class="minor-gridlayer"
         id="g17">
        <g
           class="x"
           id="g15" />
        <g
           class="y"
           id="g16" />
      </g>
      <g
         class="gridlayer"
         id="g27">
        <g
           class="x"
           id="g22">
          <path
             class="xgrid crisp"
             transform="translate(104.90256)"
             d="M 0,36.433249 V 464.04331"
             style="stroke:#000000;stroke-width:0.5px;stroke-opacity:0.1"
             id="path17" />
          <path
             class="xgrid crisp"
             transform="translate(182.86256)"
             d="M 0,36.433249 V 464.04331"
             style="stroke:#000000;stroke-width:0.5px;stroke-opacity:0.1"
             id="path18" />
          <path
             class="xgrid crisp"
             transform="translate(260.83256)"
             d="M 0,36.433249 V 464.04331"
             style="stroke:#000000;stroke-width:0.5px;stroke-opacity:0.1"
             id="path19" />
          <path
             class="xgrid crisp"
             transform="translate(338.80256)"
             d="M 0,36.433249 V 464.04331"
             style="stroke:#000000;stroke-width:0.5px;stroke-opacity:0.1"
             id="path20" />
          <path
             class="xgrid crisp"
             transform="translate(416.76256)"
             d="M 0,36.433249 V 464.04331"
             style="stroke:#000000;stroke-width:0.5px;stroke-opacity:0.1"
             id="path21" />
          <path
             class="xgrid crisp"
             transform="translate(494.73256)"
             d="M 0,36.433249 V 464.04331"
             style="stroke:#000000;stroke-width:0.5px;stroke-opacity:0.1"
             id="path22" />
        </g>
        <g
           class="y"
           id="g26">
          <path
             class="ygrid crisp"
             transform="translate(0,453.83325)"
             d="M 36.992563,0 H 508.06299"
             style="stroke:#000000;stroke-width:0.5px;stroke-opacity:0.1"
             id="path23" />
          <path
             class="ygrid crisp"
             transform="translate(0,322.37325)"
             d="M 36.992563,0 H 508.06299"
             style="stroke:#000000;stroke-width:0.5px;stroke-opacity:0.1"
             id="path24" />
          <path
             class="ygrid crisp"
             transform="translate(0,190.90325)"
             d="M 36.992563,0 H 508.06299"
             style="stroke:#000000;stroke-width:0.5px;stroke-opacity:0.1"
             id="path25" />
          <path
             class="ygrid crisp"
             transform="translate(0,59.443249)"
             d="M 36.992563,0 H 508.06299"
             style="stroke:#000000;stroke-width:0.5px;stroke-opacity:0.1"
             id="path26" />
        </g>
      </g>
      <g
         class="zerolinelayer"
         id="g28" />
      <g
         class="layer-between"
         id="g31">
        <g
           class="shapelayer"
           id="g29" />
        <g
           class="imagelayer"
           id="g30" />
      </g>
      <path
         class="xlines-below"
         id="path31"
         d="" />
      <path
         class="ylines-below"
         id="path32"
         d="" />
      <g
         class="overlines-below"
         id="g32" />
      <g
         class="xaxislayer-below"
         id="g33" />
      <g
         class="yaxislayer-below"
         id="g34" />
      <g
         class="overaxes-below"
         id="g35" />
      <g
         class="overplot"
         id="g128">
        <g
           class="xy"
           transform="translate(36.992563,36.433249)"
           clip-path="url(#clip9450ddxyplot)"
           id="g127">
          <g
             class="scatterlayer mlayer"
             id="g126">
            <g
               class="trace scatter tracea3b694"
               style="opacity:1;stroke-miterlimit:2"
               id="g59">
              <g
                 class="fills"
                 id="g36" />
              <g
                 class="errorbars"
                 id="g37" />
              <g
                 class="lines"
                 id="g38" />
              <g
                 class="points"
                 id="g57">
                <path
                   class="point"
                   transform="translate(13.33,403.8)"
                   d="M 4,0 A 4,4 0 1 1 0,-4 4,4 0 0 1 4,0 Z"
                   style="opacity:1;fill:#009afa;fill-opacity:1;stroke:#000000;stroke-width:1px;stroke-opacity:1"
                   id="path38" />
                <path
                   class="point"
                   transform="translate(36.72,391.14)"
                   d="M 4,0 A 4,4 0 1 1 0,-4 4,4 0 0 1 4,0 Z"
                   style="opacity:1;fill:#009afa;fill-opacity:1;stroke:#000000;stroke-width:1px;stroke-opacity:1"
                   id="path39" />
                <path
                   class="point"
                   transform="translate(60.11,378.48)"
                   d="M 4,0 A 4,4 0 1 1 0,-4 4,4 0 0 1 4,0 Z"
                   style="opacity:1;fill:#009afa;fill-opacity:1;stroke:#000000;stroke-width:1px;stroke-opacity:1"
                   id="path40" />
                <path
                   class="point"
                   transform="translate(83.5,367.72)"
                   d="M 4,0 A 4,4 0 1 1 0,-4 4,4 0 0 1 4,0 Z"
                   style="opacity:1;fill:#009afa;fill-opacity:1;stroke:#000000;stroke-width:1px;stroke-opacity:1"
                   id="path41" />
                <path
                   class="point"
                   transform="translate(106.89,358.95)"
                   d="M 4,0 A 4,4 0 1 1 0,-4 4,4 0 0 1 4,0 Z"
                   style="opacity:1;fill:#009afa;fill-opacity:1;stroke:#000000;stroke-width:1px;stroke-opacity:1"
                   id="path42" />
                <path
                   class="point"
                   transform="translate(130.28,354.69)"
                   d="M 4,0 A 4,4 0 1 1 0,-4 4,4 0 0 1 4,0 Z"
                   style="opacity:1;fill:#009afa;fill-opacity:1;stroke:#000000;stroke-width:1px;stroke-opacity:1"
                   id="path43" />
                <path
                   class="point"
                   transform="translate(153.67,347.32)"
                   d="M 4,0 A 4,4 0 1 1 0,-4 4,4 0 0 1 4,0 Z"
                   style="opacity:1;fill:#009afa;fill-opacity:1;stroke:#000000;stroke-width:1px;stroke-opacity:1"
                   id="path44" />
                <path
                   class="point"
                   transform="translate(177.06,339.37)"
                   d="M 4,0 A 4,4 0 1 1 0,-4 4,4 0 0 1 4,0 Z"
                   style="opacity:1;fill:#009afa;fill-opacity:1;stroke:#000000;stroke-width:1px;stroke-opacity:1"
                   id="path45" />
                <path
                   class="point"
                   transform="translate(200.45,332.4)"
                   d="M 4,0 A 4,4 0 1 1 0,-4 4,4 0 0 1 4,0 Z"
                   style="opacity:1;fill:#009afa;fill-opacity:1;stroke:#000000;stroke-width:1px;stroke-opacity:1"
                   id="path46" />
                <path
                   class="point"
                   transform="translate(223.84,326.38)"
                   d="M 4,0 A 4,4 0 1 1 0,-4 4,4 0 0 1 4,0 Z"
                   style="opacity:1;fill:#009afa;fill-opacity:1;stroke:#000000;stroke-width:1px;stroke-opacity:1"
                   id="path47" />
                <path
                   class="point"
                   transform="translate(247.23,323.46)"
                   d="M 4,0 A 4,4 0 1 1 0,-4 4,4 0 0 1 4,0 Z"
                   style="opacity:1;fill:#009afa;fill-opacity:1;stroke:#000000;stroke-width:1px;stroke-opacity:1"
                   id="path48" />
                <path
                   class="point"
                   transform="translate(270.62,325.3)"
                   d="M 4,0 A 4,4 0 1 1 0,-4 4,4 0 0 1 4,0 Z"
                   style="opacity:1;fill:#009afa;fill-opacity:1;stroke:#000000;stroke-width:1px;stroke-opacity:1"
                   id="path49" />
                <path
                   class="point"
                   transform="translate(294.01,326.44)"
                   d="M 4,0 A 4,4 0 1 1 0,-4 4,4 0 0 1 4,0 Z"
                   style="opacity:1;fill:#009afa;fill-opacity:1;stroke:#000000;stroke-width:1px;stroke-opacity:1"
                   id="path50" />
                <path
                   class="point"
                   transform="translate(317.4,324.52)"
                   d="M 4,0 A 4,4 0 1 1 0,-4 4,4 0 0 1 4,0 Z"
                   style="opacity:1;fill:#009afa;fill-opacity:1;stroke:#000000;stroke-width:1px;stroke-opacity:1"
                   id="path51" />
                <path
                   class="point"
                   transform="translate(340.79,323.19)"
                   d="M 4,0 A 4,4 0 1 1 0,-4 4,4 0 0 1 4,0 Z"
                   style="opacity:1;fill:#009afa;fill-opacity:1;stroke:#000000;stroke-width:1px;stroke-opacity:1"
                   id="path52" />
                <path
                   class="point"
                   transform="translate(364.18,319.24)"
                   d="M 4,0 A 4,4 0 1 1 0,-4 4,4 0 0 1 4,0 Z"
                   style="opacity:1;fill:#009afa;fill-opacity:1;stroke:#000000;stroke-width:1px;stroke-opacity:1"
                   id="path53" />
                <path
                   class="point"
                   transform="translate(387.57,320.77)"
                   d="M 4,0 A 4,4 0 1 1 0,-4 4,4 0 0 1 4,0 Z"
                   style="opacity:1;fill:#009afa;fill-opacity:1;stroke:#000000;stroke-width:1px;stroke-opacity:1"
                   id="path54" />
                <path
                   class="point"
                   transform="translate(410.96,323.49)"
                   d="M 4,0 A 4,4 0 1 1 0,-4 4,4 0 0 1 4,0 Z"
                   style="opacity:1;fill:#009afa;fill-opacity:1;stroke:#000000;stroke-width:1px;stroke-opacity:1"
                   id="path55" />
                <path
                   class="point"
                   transform="translate(434.35,322.96)"
                   d="M 4,0 A 4,4 0 1 1 0,-4 4,4 0 0 1 4,0 Z"
                   style="opacity:1;fill:#009afa;fill-opacity:1;stroke:#000000;stroke-width:1px;stroke-opacity:1"
                   id="path56" />
                <path
                   class="point"
                   transform="translate(457.74,322.1)"
                   d="M 4,0 A 4,4 0 1 1 0,-4 4,4 0 0 1 4,0 Z"
                   style="opacity:1;fill:#009afa;fill-opacity:1;stroke:#000000;stroke-width:1px;stroke-opacity:1"
                   id="path57" />
              </g>
              <g
                 class="text"
                 id="g58" />
            </g>
            <g
               class="trace scatter tracee10863"
               style="opacity:1;stroke-miterlimit:2"
               id="g83">
              <g
                 class="fills"
                 id="g60" />
              <g
                 class="errorbars"
                 id="g61" />
              <g
                 class="lines"
                 id="g62" />
              <g
                 class="points"
                 id="g81">
                <path
                   class="point"
                   transform="translate(13.33,415.51)"
                   d="M 4,0 A 4,4 0 1 1 0,-4 4,4 0 0 1 4,0 Z"
                   style="opacity:1;fill:#e36f47;fill-opacity:1;stroke:#000000;stroke-width:1px;stroke-opacity:1"
                   id="path62" />
                <path
                   class="point"
                   transform="translate(36.72,414.31)"
                   d="M 4,0 A 4,4 0 1 1 0,-4 4,4 0 0 1 4,0 Z"
                   style="opacity:1;fill:#e36f47;fill-opacity:1;stroke:#000000;stroke-width:1px;stroke-opacity:1"
                   id="path63" />
                <path
                   class="point"
                   transform="translate(60.11,413)"
                   d="M 4,0 A 4,4 0 1 1 0,-4 4,4 0 0 1 4,0 Z"
                   style="opacity:1;fill:#e36f47;fill-opacity:1;stroke:#000000;stroke-width:1px;stroke-opacity:1"
                   id="path64" />
                <path
                   class="point"
                   transform="translate(83.5,410.78)"
                   d="M 4,0 A 4,4 0 1 1 0,-4 4,4 0 0 1 4,0 Z"
                   style="opacity:1;fill:#e36f47;fill-opacity:1;stroke:#000000;stroke-width:1px;stroke-opacity:1"
                   id="path65" />
                <path
                   class="point"
                   transform="translate(106.89,408.06)"
                   d="M 4,0 A 4,4 0 1 1 0,-4 4,4 0 0 1 4,0 Z"
                   style="opacity:1;fill:#e36f47;fill-opacity:1;stroke:#000000;stroke-width:1px;stroke-opacity:1"
                   id="path66" />
                <path
                   class="point"
                   transform="translate(130.28,407.21)"
                   d="M 4,0 A 4,4 0 1 1 0,-4 4,4 0 0 1 4,0 Z"
                   style="opacity:1;fill:#e36f47;fill-opacity:1;stroke:#000000;stroke-width:1px;stroke-opacity:1"
                   id="path67" />
                <path
                   class="point"
                   transform="translate(153.67,404.47)"
                   d="M 4,0 A 4,4 0 1 1 0,-4 4,4 0 0 1 4,0 Z"
                   style="opacity:1;fill:#e36f47;fill-opacity:1;stroke:#000000;stroke-width:1px;stroke-opacity:1"
                   id="path68" />
                <path
                   class="point"
                   transform="translate(177.06,401.83)"
                   d="M 4,0 A 4,4 0 1 1 0,-4 4,4 0 0 1 4,0 Z"
                   style="opacity:1;fill:#e36f47;fill-opacity:1;stroke:#000000;stroke-width:1px;stroke-opacity:1"
                   id="path69" />
                <path
                   class="point"
                   transform="translate(200.45,400.68)"
                   d="M 4,0 A 4,4 0 1 1 0,-4 4,4 0 0 1 4,0 Z"
                   style="opacity:1;fill:#e36f47;fill-opacity:1;stroke:#000000;stroke-width:1px;stroke-opacity:1"
                   id="path70" />
                <path
                   class="point"
                   transform="translate(223.84,399.05)"
                   d="M 4,0 A 4,4 0 1 1 0,-4 4,4 0 0 1 4,0 Z"
                   style="opacity:1;fill:#e36f47;fill-opacity:1;stroke:#000000;stroke-width:1px;stroke-opacity:1"
                   id="path71" />
                <path
                   class="point"
                   transform="translate(247.23,399.11)"
                   d="M 4,0 A 4,4 0 1 1 0,-4 4,4 0 0 1 4,0 Z"
                   style="opacity:1;fill:#e36f47;fill-opacity:1;stroke:#000000;stroke-width:1px;stroke-opacity:1"
                   id="path72" />
                <path
                   class="point"
                   transform="translate(270.62,397.31)"
                   d="M 4,0 A 4,4 0 1 1 0,-4 4,4 0 0 1 4,0 Z"
                   style="opacity:1;fill:#e36f47;fill-opacity:1;stroke:#000000;stroke-width:1px;stroke-opacity:1"
                   id="path73" />
                <path
                   class="point"
                   transform="translate(294.01,392.92)"
                   d="M 4,0 A 4,4 0 1 1 0,-4 4,4 0 0 1 4,0 Z"
                   style="opacity:1;fill:#e36f47;fill-opacity:1;stroke:#000000;stroke-width:1px;stroke-opacity:1"
                   id="path74" />
                <path
                   class="point"
                   transform="translate(317.4,392.48)"
                   d="M 4,0 A 4,4 0 1 1 0,-4 4,4 0 0 1 4,0 Z"
                   style="opacity:1;fill:#e36f47;fill-opacity:1;stroke:#000000;stroke-width:1px;stroke-opacity:1"
                   id="path75" />
                <path
                   class="point"
                   transform="translate(340.79,391.24)"
                   d="M 4,0 A 4,4 0 1 1 0,-4 4,4 0 0 1 4,0 Z"
                   style="opacity:1;fill:#e36f47;fill-opacity:1;stroke:#000000;stroke-width:1px;stroke-opacity:1"
                   id="path76" />
                <path
                   class="point"
                   transform="translate(364.18,390.66)"
                   d="M 4,0 A 4,4 0 1 1 0,-4 4,4 0 0 1 4,0 Z"
                   style="opacity:1;fill:#e36f47;fill-opacity:1;stroke:#000000;stroke-width:1px;stroke-opacity:1"
                   id="path77" />
                <path
                   class="point"
                   transform="translate(387.57,388.87)"
                   d="M 4,0 A 4,4 0 1 1 0,-4 4,4 0 0 1 4,0 Z"
                   style="opacity:1;fill:#e36f47;fill-opacity:1;stroke:#000000;stroke-width:1px;stroke-opacity:1"
                   id="path78" />
                <path
                   class="point"
                   transform="translate(410.96,384.98)"
                   d="M 4,0 A 4,4 0 1 1 0,-4 4,4 0 0 1 4,0 Z"
                   style="opacity:1;fill:#e36f47;fill-opacity:1;stroke:#000000;stroke-width:1px;stroke-opacity:1"
                   id="path79" />
                <path
                   class="point"
                   transform="translate(434.35,383.24)"
                   d="M 4,0 A 4,4 0 1 1 0,-4 4,4 0 0 1 4,0 Z"
                   style="opacity:1;fill:#e36f47;fill-opacity:1;stroke:#000000;stroke-width:1px;stroke-opacity:1"
                   id="path80" />
                <path
                   class="point"
                   transform="translate(457.74,383.3)"
                   d="M 4,0 A 4,4 0 1 1 0,-4 4,4 0 0 1 4,0 Z"
                   style="opacity:1;fill:#e36f47;fill-opacity:1;stroke:#000000;stroke-width:1px;stroke-opacity:1"
                   id="path81" />
              </g>
              <g
                 class="text"
                 id="g82" />
            </g>
            <g
               class="trace scatter trace225c1b"
               style="opacity:1;stroke-miterlimit:2"
               id="g107">
              <g
                 class="fills"
                 id="g84" />
              <g
                 class="errorbars"
                 id="g85" />
              <g
                 class="lines"
                 id="g86" />
              <g
                 class="points"
                 id="g105">
                <path
                   class="point"
                   transform="translate(13.33,411.76)"
                   d="M 4,0 A 4,4 0 1 1 0,-4 4,4 0 0 1 4,0 Z"
                   style="opacity:1;fill:#3ea44e;fill-opacity:1;stroke:#000000;stroke-width:1px;stroke-opacity:1"
                   id="path86" />
                <path
                   class="point"
                   transform="translate(36.72,401.27)"
                   d="M 4,0 A 4,4 0 1 1 0,-4 4,4 0 0 1 4,0 Z"
                   style="opacity:1;fill:#3ea44e;fill-opacity:1;stroke:#000000;stroke-width:1px;stroke-opacity:1"
                   id="path87" />
                <path
                   class="point"
                   transform="translate(60.11,389.44)"
                   d="M 4,0 A 4,4 0 1 1 0,-4 4,4 0 0 1 4,0 Z"
                   style="opacity:1;fill:#3ea44e;fill-opacity:1;stroke:#000000;stroke-width:1px;stroke-opacity:1"
                   id="path88" />
                <path
                   class="point"
                   transform="translate(83.5,374.11)"
                   d="M 4,0 A 4,4 0 1 1 0,-4 4,4 0 0 1 4,0 Z"
                   style="opacity:1;fill:#3ea44e;fill-opacity:1;stroke:#000000;stroke-width:1px;stroke-opacity:1"
                   id="path89" />
                <path
                   class="point"
                   transform="translate(106.89,360.77)"
                   d="M 4,0 A 4,4 0 1 1 0,-4 4,4 0 0 1 4,0 Z"
                   style="opacity:1;fill:#3ea44e;fill-opacity:1;stroke:#000000;stroke-width:1px;stroke-opacity:1"
                   id="path90" />
                <path
                   class="point"
                   transform="translate(130.28,343.96)"
                   d="M 4,0 A 4,4 0 1 1 0,-4 4,4 0 0 1 4,0 Z"
                   style="opacity:1;fill:#3ea44e;fill-opacity:1;stroke:#000000;stroke-width:1px;stroke-opacity:1"
                   id="path91" />
                <path
                   class="point"
                   transform="translate(153.67,323.03)"
                   d="M 4,0 A 4,4 0 1 1 0,-4 4,4 0 0 1 4,0 Z"
                   style="opacity:1;fill:#3ea44e;fill-opacity:1;stroke:#000000;stroke-width:1px;stroke-opacity:1"
                   id="path92" />
                <path
                   class="point"
                   transform="translate(177.06,305.7)"
                   d="M 4,0 A 4,4 0 1 1 0,-4 4,4 0 0 1 4,0 Z"
                   style="opacity:1;fill:#3ea44e;fill-opacity:1;stroke:#000000;stroke-width:1px;stroke-opacity:1"
                   id="path93" />
                <path
                   class="point"
                   transform="translate(200.45,287.42)"
                   d="M 4,0 A 4,4 0 1 1 0,-4 4,4 0 0 1 4,0 Z"
                   style="opacity:1;fill:#3ea44e;fill-opacity:1;stroke:#000000;stroke-width:1px;stroke-opacity:1"
                   id="path94" />
                <path
                   class="point"
                   transform="translate(223.84,272.34)"
                   d="M 4,0 A 4,4 0 1 1 0,-4 4,4 0 0 1 4,0 Z"
                   style="opacity:1;fill:#3ea44e;fill-opacity:1;stroke:#000000;stroke-width:1px;stroke-opacity:1"
                   id="path95" />
                <path
                   class="point"
                   transform="translate(247.23,251.96)"
                   d="M 4,0 A 4,4 0 1 1 0,-4 4,4 0 0 1 4,0 Z"
                   style="opacity:1;fill:#3ea44e;fill-opacity:1;stroke:#000000;stroke-width:1px;stroke-opacity:1"
                   id="path96" />
                <path
                   class="point"
                   transform="translate(270.62,230.17)"
                   d="M 4,0 A 4,4 0 1 1 0,-4 4,4 0 0 1 4,0 Z"
                   style="opacity:1;fill:#3ea44e;fill-opacity:1;stroke:#000000;stroke-width:1px;stroke-opacity:1"
                   id="path97" />
                <path
                   class="point"
                   transform="translate(294.01,201.94)"
                   d="M 4,0 A 4,4 0 1 1 0,-4 4,4 0 0 1 4,0 Z"
                   style="opacity:1;fill:#3ea44e;fill-opacity:1;stroke:#000000;stroke-width:1px;stroke-opacity:1"
                   id="path98" />
                <path
                   class="point"
                   transform="translate(317.4,176.01)"
                   d="M 4,0 A 4,4 0 1 1 0,-4 4,4 0 0 1 4,0 Z"
                   style="opacity:1;fill:#3ea44e;fill-opacity:1;stroke:#000000;stroke-width:1px;stroke-opacity:1"
                   id="path99" />
                <path
                   class="point"
                   transform="translate(340.79,154.24)"
                   d="M 4,0 A 4,4 0 1 1 0,-4 4,4 0 0 1 4,0 Z"
                   style="opacity:1;fill:#3ea44e;fill-opacity:1;stroke:#000000;stroke-width:1px;stroke-opacity:1"
                   id="path100" />
                <path
                   class="point"
                   transform="translate(364.18,130.43)"
                   d="M 4,0 A 4,4 0 1 1 0,-4 4,4 0 0 1 4,0 Z"
                   style="opacity:1;fill:#3ea44e;fill-opacity:1;stroke:#000000;stroke-width:1px;stroke-opacity:1"
                   id="path101" />
                <path
                   class="point"
                   transform="translate(387.57,102.29)"
                   d="M 4,0 A 4,4 0 1 1 0,-4 4,4 0 0 1 4,0 Z"
                   style="opacity:1;fill:#3ea44e;fill-opacity:1;stroke:#000000;stroke-width:1px;stroke-opacity:1"
                   id="path102" />
                <path
                   class="point"
                   transform="translate(410.96,73.44)"
                   d="M 4,0 A 4,4 0 1 1 0,-4 4,4 0 0 1 4,0 Z"
                   style="opacity:1;fill:#3ea44e;fill-opacity:1;stroke:#000000;stroke-width:1px;stroke-opacity:1"
                   id="path103" />
                <path
                   class="point"
                   transform="translate(434.35,45.37)"
                   d="M 4,0 A 4,4 0 1 1 0,-4 4,4 0 0 1 4,0 Z"
                   style="opacity:1;fill:#3ea44e;fill-opacity:1;stroke:#000000;stroke-width:1px;stroke-opacity:1"
                   id="path104" />
                <path
                   class="point"
                   transform="translate(457.74,12.1)"
                   d="M 4,0 A 4,4 0 1 1 0,-4 4,4 0 0 1 4,0 Z"
                   style="opacity:1;fill:#3ea44e;fill-opacity:1;stroke:#000000;stroke-width:1px;stroke-opacity:1"
                   id="path105" />
              </g>
              <g
                 class="text"
                 id="g106" />
            </g>
            <g
               class="trace scatter trace5a25fa"
               style="opacity:1;stroke-miterlimit:2"
               id="g113">
              <g
                 class="fills"
                 id="g108" />
              <g
                 class="errorbars"
                 id="g109" />
              <g
                 class="lines"
                 id="g110">
                <path
                   class="js-line"
                   d="m 13.33,403.8 46.78,-25.32 23.39,-10.76 23.39,-8.77 23.39,-4.26 70.17,-22.29 23.39,-6.02 23.39,-2.92 23.39,1.84 23.39,1.14 23.39,-1.92 23.39,-1.33 23.39,-3.95 23.39,1.53 23.39,2.72 46.78,-1.39"
                   style="opacity:1;vector-effect:none;fill:none;stroke:#009afa;stroke-width:2px;stroke-opacity:1"
                   id="path109" />
              </g>
              <g
                 class="points"
                 id="g111" />
              <g
                 class="text"
                 id="g112" />
            </g>
            <g
               class="trace scatter trace7d11cc"
               style="opacity:1;stroke-miterlimit:2"
               id="g119">
              <g
                 class="fills"
                 id="g114" />
              <g
                 class="errorbars"
                 id="g115" />
              <g
                 class="lines"
                 id="g116">
                <path
                   class="js-line"
                   d="m 13.33,415.51 46.78,-2.51 23.39,-2.22 23.39,-2.72 23.39,-0.85 46.78,-5.38 23.39,-1.15 23.39,-1.63 23.39,0.06 23.39,-1.8 23.39,-4.39 23.39,-0.44 23.39,-1.24 23.39,-0.58 23.39,-1.79 23.39,-3.89 23.39,-1.74 23.39,0.06"
                   style="opacity:1;vector-effect:none;fill:none;stroke:#e36f47;stroke-width:2px;stroke-opacity:1"
                   id="path115" />
              </g>
              <g
                 class="points"
                 id="g117" />
              <g
                 class="text"
                 id="g118" />
            </g>
            <g
               class="trace scatter traceac57f1"
               style="opacity:1;stroke-miterlimit:2"
               id="g125">
              <g
                 class="fills"
                 id="g120" />
              <g
                 class="errorbars"
                 id="g121" />
              <g
                 class="lines"
                 id="g122">
                <path
                   class="js-line"
                   d="m 13.33,411.76 23.39,-10.49 23.39,-11.83 23.39,-15.33 23.39,-13.34 23.39,-16.81 23.39,-20.93 23.39,-17.33 23.39,-18.28 23.39,-15.08 23.39,-20.38 23.39,-21.79 23.39,-28.23 23.39,-25.93 23.39,-21.77 23.39,-23.81 23.39,-28.14 46.78,-56.92 23.39,-33.27"
                   style="opacity:1;vector-effect:none;fill:none;stroke:#3ea44e;stroke-width:2px;stroke-opacity:1"
                   id="path121" />
              </g>
              <g
                 class="points"
                 id="g123" />
              <g
                 class="text"
                 id="g124" />
            </g>
          </g>
        </g>
      </g>
      <path
         class="xlines-above crisp"
         d="M 35.992563,464.54331 H 508.06299"
         style="fill:none;stroke:#000000;stroke-width:1px;stroke-opacity:1"
         id="path128" />
      <path
         class="ylines-above crisp"
         d="M 36.492563,36.433249 V 464.04331"
         style="fill:none;stroke:#000000;stroke-width:1px;stroke-opacity:1"
         id="path129" />
      <g
         class="overlines-above"
         id="g129" />
      <g
         class="xaxislayer-above"
         id="g141">
        <path
           class="xtick ticks crisp"
           d="m 0,464.04331 v -5"
           transform="translate(104.90256)"
           style="stroke:#000000;stroke-width:1px;stroke-opacity:1"
           id="path130" />
        <path
           class="xtick ticks crisp"
           d="m 0,464.04331 v -5"
           transform="translate(182.86256)"
           style="stroke:#000000;stroke-width:1px;stroke-opacity:1"
           id="path131" />
        <path
           class="xtick ticks crisp"
           d="m 0,464.04331 v -5"
           transform="translate(260.83256)"
           style="stroke:#000000;stroke-width:1px;stroke-opacity:1"
           id="path132" />
        <path
           class="xtick ticks crisp"
           d="m 0,464.04331 v -5"
           transform="translate(338.80256)"
           style="stroke:#000000;stroke-width:1px;stroke-opacity:1"
           id="path133" />
        <path
           class="xtick ticks crisp"
           d="m 0,464.04331 v -5"
           transform="translate(416.76256)"
           style="stroke:#000000;stroke-width:1px;stroke-opacity:1"
           id="path134" />
        <path
           class="xtick ticks crisp"
           d="m 0,464.04331 v -5"
           transform="translate(494.73256)"
           style="stroke:#000000;stroke-width:1px;stroke-opacity:1"
           id="path135" />
        <g
           class="xtick"
           id="g135">
          <text
             text-anchor="middle"
             x="0"
             y="478.24332"
             transform="translate(104.90256)"
             style="font-size:11px;font-family:sans-serif;white-space:pre;opacity:1;fill:#000000;fill-opacity:1"
             id="text135">1000</text>
        </g>
        <g
           class="xtick"
           id="g136">
          <text
             text-anchor="middle"
             x="0"
             y="478.24332"
             style="font-size:11px;font-family:sans-serif;white-space:pre;opacity:1;fill:#000000;fill-opacity:1"
             transform="translate(182.86256)"
             id="text136">2000</text>
        </g>
        <g
           class="xtick"
           id="g137">
          <text
             text-anchor="middle"
             x="0"
             y="478.24332"
             style="font-size:11px;font-family:sans-serif;white-space:pre;opacity:1;fill:#000000;fill-opacity:1"
             transform="translate(260.83256)"
             id="text137">3000</text>
        </g>
        <g
           class="xtick"
           id="g138">
          <text
             text-anchor="middle"
             x="0"
             y="478.24332"
             style="font-size:11px;font-family:sans-serif;white-space:pre;opacity:1;fill:#000000;fill-opacity:1"
             transform="translate(338.80256)"
             id="text138">4000</text>
        </g>
        <g
           class="xtick"
           id="g139">
          <text
             text-anchor="middle"
             x="0"
             y="478.24332"
             style="font-size:11px;font-family:sans-serif;white-space:pre;opacity:1;fill:#000000;fill-opacity:1"
             transform="translate(416.76256)"
             id="text139">5000</text>
        </g>
        <g
           class="xtick"
           id="g140">
          <text
             text-anchor="middle"
             x="0"
             y="478.24332"
             style="font-size:11px;font-family:sans-serif;white-space:pre;opacity:1;fill:#000000;fill-opacity:1"
             transform="translate(494.73256)"
             id="text140">6000</text>
        </g>
      </g>
      <g
         class="yaxislayer-above"
         id="g148">
        <path
           class="ytick ticks crisp"
           d="m 36.992563,0 h 5"
           transform="translate(0,453.83325)"
           style="stroke:#000000;stroke-width:1px;stroke-opacity:1"
           id="path141" />
        <path
           class="ytick ticks crisp"
           d="m 36.992563,0 h 5"
           transform="translate(0,322.37325)"
           style="stroke:#000000;stroke-width:1px;stroke-opacity:1"
           id="path142" />
        <path
           class="ytick ticks crisp"
           d="m 36.992563,0 h 5"
           transform="translate(0,190.90325)"
           style="stroke:#000000;stroke-width:1px;stroke-opacity:1"
           id="path143" />
        <path
           class="ytick ticks crisp"
           d="m 36.992563,0 h 5"
           transform="translate(0,59.443249)"
           style="stroke:#000000;stroke-width:1px;stroke-opacity:1"
           id="path144" />
        <g
           class="ytick"
           id="g144">
          <text
             text-anchor="end"
             x="33.792564"
             y="3.8499999"
             transform="translate(0,453.83325)"
             style="font-size:11px;font-family:sans-serif;white-space:pre;opacity:1;fill:#000000;fill-opacity:1"
             id="text144">0</text>
        </g>
        <g
           class="ytick"
           id="g145">
          <text
             text-anchor="end"
             x="33.792564"
             y="3.8499999"
             style="font-size:11px;font-family:sans-serif;white-space:pre;opacity:1;fill:#000000;fill-opacity:1"
             transform="translate(0,322.37325)"
             id="text145">5</text>
        </g>
        <g
           class="ytick"
           id="g146">
          <text
             text-anchor="end"
             x="33.792564"
             y="3.8499999"
             style="font-size:11px;font-family:sans-serif;white-space:pre;opacity:1;fill:#000000;fill-opacity:1"
             transform="translate(0,190.90325)"
             id="text146">10</text>
        </g>
        <g
           class="ytick"
           id="g147">
          <text
             text-anchor="end"
             x="33.792564"
             y="3.8499999"
             style="font-size:11px;font-family:sans-serif;white-space:pre;opacity:1;fill:#000000;fill-opacity:1"
             transform="translate(0,59.443249)"
             id="text147">15</text>
        </g>
      </g>
      <g
         class="overaxes-above"
         id="g149" />
    </g>
  </g>
  <g
     class="polarlayer"
     id="g152"
     transform="translate(-2.9453833,-20)" />
  <g
     class="smithlayer"
     id="g153"
     transform="translate(-2.9453833,-20)" />
  <g
     class="ternarylayer"
     id="g154"
     transform="translate(-2.9453833,-20)" />
  <g
     class="geolayer"
     id="g155"
     transform="translate(-2.9453833,-20)" />
  <g
     class="funnelarealayer"
     id="g156"
     transform="translate(-2.9453833,-20)" />
  <g
     class="pielayer"
     id="g157"
     transform="translate(-2.9453833,-20)" />
  <g
     class="iciclelayer"
     id="g158"
     transform="translate(-2.9453833,-20)" />
  <g
     class="treemaplayer"
     id="g159"
     transform="translate(-2.9453833,-20)" />
  <g
     class="sunburstlayer"
     id="g160"
     transform="translate(-2.9453833,-20)" />
  <g
     class="glimages"
     id="g161"
     transform="translate(-2.9453833,-20)" />
  <defs
     id="topdefs-9450dd">
    <g
       class="clips"
       id="g162" />
    <clipPath
       id="legend9450dd">
      <rect
         width="94"
         height="67"
         x="1"
         y="1"
         id="rect162" />
    </clipPath>
  </defs>
  <g
     class="layer-above"
     id="g165"
     transform="translate(-2.9453833,-20)">
    <g
       class="imagelayer"
       id="g163" />
    <g
       class="shapelayer"
       id="g164" />
  </g>
  <g
     class="infolayer"
     id="g193"
     transform="translate(-2.9453833,-20)">
    <g
       class="legend"
       pointer-events="all"
       transform="translate(55.84,82)"
       id="g186">
      <rect
         class="bg"
         shape-rendering="crispEdges"
         width="95"
         height="68"
         x="0.5"
         y="0.5"
         style="fill:#ffffff;fill-opacity:1;stroke:#000000;stroke-width:1px;stroke-opacity:1"
         id="rect165" />
      <g
         class="scrollbox"
         clip-path="url(#legend9450dd)"
         id="g185">
        <g
           class="groups"
           id="g184">
          <g
             class="traces"
             transform="translate(1,15.5)"
             style="opacity:1"
             id="g171">
            <text
               class="legendtext"
               text-anchor="start"
               x="40"
               y="4.29"
               style="font-size:11px;font-family:sans-serif;white-space:pre;fill:#000000;fill-opacity:1"
               id="text165">Iteridense</text>
            <g
               class="layers"
               style="opacity:1"
               id="g170">
              <g
                 class="legendfill"
                 id="g166" />
              <g
                 class="legendlines"
                 id="g167" />
              <g
                 class="legendsymbols"
                 id="g169">
                <g
                   class="legendpoints"
                   id="g168">
                  <path
                     class="scatterpts"
                     transform="translate(20)"
                     d="M 4,0 A 4,4 0 1 1 0,-4 4,4 0 0 1 4,0 Z"
                     style="opacity:1;fill:#009afa;fill-opacity:1;stroke:#000000;stroke-width:1px;stroke-opacity:1"
                     id="path167" />
                </g>
              </g>
            </g>
            <rect
               class="legendtoggle"
               x="0"
               y="-9.5"
               width="88.3125"
               height="19"
               style="fill:#000000;fill-opacity:0"
               id="rect170" />
          </g>
          <g
             class="traces"
             transform="translate(1,34.5)"
             style="opacity:1"
             id="g177">
            <text
               class="legendtext"
               text-anchor="start"
               x="40"
               y="4.29"
               style="font-size:11px;font-family:sans-serif;white-space:pre;fill:#000000;fill-opacity:1"
               id="text171">k-means</text>
            <g
               class="layers"
               style="opacity:1"
               id="g176">
              <g
                 class="legendfill"
                 id="g172" />
              <g
                 class="legendlines"
                 id="g173" />
              <g
                 class="legendsymbols"
                 id="g175">
                <g
                   class="legendpoints"
                   id="g174">
                  <path
                     class="scatterpts"
                     transform="translate(20)"
                     d="M 4,0 A 4,4 0 1 1 0,-4 4,4 0 0 1 4,0 Z"
                     style="opacity:1;fill:#e36f47;fill-opacity:1;stroke:#000000;stroke-width:1px;stroke-opacity:1"
                     id="path173" />
                </g>
              </g>
            </g>
            <rect
               class="legendtoggle"
               x="0"
               y="-9.5"
               width="88.3125"
               height="19"
               style="fill:#000000;fill-opacity:0"
               id="rect176" />
          </g>
          <g
             class="traces"
             transform="translate(1,53.5)"
             style="opacity:1"
             id="g183">
            <text
               class="legendtext"
               text-anchor="start"
               x="40"
               y="4.29"
               style="font-size:11px;font-family:sans-serif;white-space:pre;fill:#000000;fill-opacity:1"
               id="text177">DBSCAN</text>
            <g
               class="layers"
               style="opacity:1"
               id="g182">
              <g
                 class="legendfill"
                 id="g178" />
              <g
                 class="legendlines"
                 id="g179" />
              <g
                 class="legendsymbols"
                 id="g181">
                <g
                   class="legendpoints"
                   id="g180">
                  <path
                     class="scatterpts"
                     transform="translate(20)"
                     d="M 4,0 A 4,4 0 1 1 0,-4 4,4 0 0 1 4,0 Z"
                     style="opacity:1;fill:#3ea44e;fill-opacity:1;stroke:#000000;stroke-width:1px;stroke-opacity:1"
                     id="path179" />
                </g>
              </g>
            </g>
            <rect
               class="legendtoggle"
               x="0"
               y="-9.5"
               width="88.3125"
               height="19"
               style="fill:#000000;fill-opacity:0"
               id="rect182" />
          </g>
        </g>
      </g>
      <rect
         class="scrollbar"
         rx="20"
         ry="3"
         width="0"
         height="0"
         x="0"
         y="0"
         style="fill:#808ba4;fill-opacity:1"
         id="rect185" />
    </g>
    <g
       class="g-gtitle"
       id="g187" />
    <g
       class="g-xtitle"
       transform="translate(0,-20.043314)"
       id="g188">
      <text
         class="xtitle"
         x="272.52777"
         y="519.04333"
         text-anchor="middle"
         style="font-size:15px;font-family:sans-serif;white-space:pre;opacity:1;fill:#000000;fill-opacity:1"
         id="text187">N</text>
    </g>
    <g
       class="g-ytitle"
       transform="translate(17.007812)"
       id="g189">
      <text
         class="ytitle"
         transform="rotate(-90,-3.0074366,250.23828)"
         x="-3.0074365"
         y="250.23828"
         text-anchor="middle"
         style="font-size:15px;font-family:sans-serif;white-space:pre;opacity:1;fill:#000000;fill-opacity:1"
         id="text188">time in s</text>
    </g>
    <g
       class="annotation"
       data-index="0"
       style="opacity:1"
       id="g192">
      <g
         class="annotation-text-g"
         id="g191">
        <g
           class="cursor-pointer"
           transform="translate(172,20)"
           id="g190">
          <rect
             class="bg"
             x="0.5"
             y="0.5"
             width="201"
             height="19"
             style="fill:#000000;fill-opacity:0;stroke:#000000;stroke-width:1px;stroke-opacity:0"
             id="rect189" />
          <text
             class="annotation-text"
             text-anchor="middle"
             x="100.82031"
             y="15"
             style="font-size:14px;font-family:sans-serif;white-space:pre;fill:#000000;fill-opacity:1"
             id="text189">Calculation time comparison 3D</text>
        </g>
      </g>
    </g>
  </g>
</svg>
