<?xml version="1.0" encoding="UTF-8" standalone="no"?>
<svg
   class="main-svg"
   width="505.11761"
   height="465.00003"
   version="1.1"
   id="svg193"
   sodipodi:docname="Calculation-time-comparison-3D.svg"
   inkscape:version="1.4.2 (f4327f4, 2025-05-13)"
   xmlns:inkscape="http://www.inkscape.org/namespaces/inkscape"
   xmlns:sodipodi="http://sodipodi.sourceforge.net/DTD/sodipodi-0.dtd"
   xmlns="http://www.w3.org/2000/svg"
   xmlns:svg="http://www.w3.org/2000/svg">
  <sodipodi:namedview
     id="namedview193"
     pagecolor="#ffffff"
     bordercolor="#000000"
     borderopacity="0.25"
     inkscape:showpageshadow="2"
     inkscape:pageopacity="0.0"
     inkscape:pagecheckerboard="0"
     inkscape:deskcolor="#d1d1d1"
     inkscape:zoom="1.5761719"
     inkscape:cx="252.51053"
     inkscape:cy="219.83643"
     inkscape:window-width="1920"
     inkscape:window-height="1009"
     inkscape:window-x="-8"
     inkscape:window-y="-8"
     inkscape:window-maximized="1"
     inkscape:current-layer="svg193" />
  <defs
     id="defs-1eec54">
    <g
       class="clips"
       id="g5">
      <clipPath
         id="clip1eec54xyplot"
         class="plotclip">
        <rect
           width="471.07043"
           height="427.61008"
           id="rect2"
           x="0"
           y="0" />
      </clipPath>
      <clipPath
         class="axesclip"
         id="clip1eec54x">
        <rect
           x="36.992565"
           y="0"
           width="471.07043"
           height="512"
           id="rect3" />
      </clipPath>
      <clipPath
         class="axesclip"
         id="clip1eec54y">
        <rect
           x="0"
           y="36.43325"
           width="512"
           height="427.61008"
           id="rect4" />
      </clipPath>
      <clipPath
         class="axesclip"
         id="clip1eec54xy">
        <rect
           x="36.992565"
           y="36.43325"
           width="471.07043"
           height="427.61008"
           id="rect5" />
      </clipPath>
    </g>
    <g
       class="gradients"
       id="g6" />
    <g
       class="patterns"
       id="g7" />
  </defs>
  <g
     class="bglayer"
     id="g8"
     transform="translate(-2.945384,-36)" />
  <g
     class="layer-below"
     id="g11"
     transform="translate(-2.945384,-36)">
    <g
       class="imagelayer"
       id="g9" />
    <g
       class="shapelayer"
       id="g10" />
  </g>
  <g
     class="cartesianlayer"
     id="g151"
     transform="translate(-2.945384,-36)">
    <g
       class="subplot xy"
       id="g150">
      <g
         class="layer-subplot"
         id="g14">
        <g
           class="shapelayer"
           id="g12" />
        <g
           class="imagelayer"
           id="g13" />
      </g>
      <g
         class="minor-gridlayer"
         id="g17">
        <g
           class="x"
           id="g15" />
        <g
           class="y"
           id="g16" />
      </g>
      <g
         class="gridlayer"
         id="g27">
        <g
           class="x"
           id="g22">
          <path
             class="xgrid crisp"
             transform="translate(104.90256)"
             d="M 0,36.433249 V 464.04331"
             style="stroke:#000000;stroke-width:0.5px;stroke-opacity:0.1"
             id="path17" />
          <path
             class="xgrid crisp"
             transform="translate(182.86256)"
             d="M 0,36.433249 V 464.04331"
             style="stroke:#000000;stroke-width:0.5px;stroke-opacity:0.1"
             id="path18" />
          <path
             class="xgrid crisp"
             transform="translate(260.83256)"
             d="M 0,36.433249 V 464.04331"
             style="stroke:#000000;stroke-width:0.5px;stroke-opacity:0.1"
             id="path19" />
          <path
             class="xgrid crisp"
             transform="translate(338.80256)"
             d="M 0,36.433249 V 464.04331"
             style="stroke:#000000;stroke-width:0.5px;stroke-opacity:0.1"
             id="path20" />
          <path
             class="xgrid crisp"
             transform="translate(416.76256)"
             d="M 0,36.433249 V 464.04331"
             style="stroke:#000000;stroke-width:0.5px;stroke-opacity:0.1"
             id="path21" />
          <path
             class="xgrid crisp"
             transform="translate(494.73256)"
             d="M 0,36.433249 V 464.04331"
             style="stroke:#000000;stroke-width:0.5px;stroke-opacity:0.1"
             id="path22" />
        </g>
        <g
           class="y"
           id="g26">
          <path
             class="ygrid crisp"
             transform="translate(0,453.92325)"
             d="M 36.992563,0 H 508.06299"
             style="stroke:#000000;stroke-width:0.5px;stroke-opacity:0.1"
             id="path23" />
          <path
             class="ygrid crisp"
             transform="translate(0,316.60325)"
             d="M 36.992563,0 H 508.06299"
             style="stroke:#000000;stroke-width:0.5px;stroke-opacity:0.1"
             id="path24" />
          <path
             class="ygrid crisp"
             transform="translate(0,179.29325)"
             d="M 36.992563,0 H 508.06299"
             style="stroke:#000000;stroke-width:0.5px;stroke-opacity:0.1"
             id="path25" />
          <path
             class="ygrid crisp"
             transform="translate(0,41.973249)"
             d="M 36.992563,0 H 508.06299"
             style="stroke:#000000;stroke-width:0.5px;stroke-opacity:0.1"
             id="path26" />
        </g>
      </g>
      <g
         class="zerolinelayer"
         id="g28" />
      <g
         class="layer-between"
         id="g31">
        <g
           class="shapelayer"
           id="g29" />
        <g
           class="imagelayer"
           id="g30" />
      </g>
      <path
         class="xlines-below"
         id="path31"
         d="" />
      <path
         class="ylines-below"
         id="path32"
         d="" />
      <g
         class="overlines-below"
         id="g32" />
      <g
         class="xaxislayer-below"
         id="g33" />
      <g
         class="yaxislayer-below"
         id="g34" />
      <g
         class="overaxes-below"
         id="g35" />
      <g
         class="overplot"
         id="g128">
        <g
           class="xy"
           transform="translate(36.992563,36.433249)"
           clip-path="url(#clip1eec54xyplot)"
           id="g127">
          <g
             class="scatterlayer mlayer"
             id="g126">
            <g
               class="trace scatter trace5e9ecc"
               style="opacity:1;stroke-miterlimit:2"
               id="g59">
              <g
                 class="fills"
                 id="g36" />
              <g
                 class="errorbars"
                 id="g37" />
              <g
                 class="lines"
                 id="g38" />
              <g
                 class="points"
                 id="g57">
                <path
                   class="point"
                   transform="translate(13.33,404.62)"
                   d="M 4,0 A 4,4 0 1 1 0,-4 4,4 0 0 1 4,0 Z"
                   style="opacity:1;fill:#009afa;fill-opacity:1;stroke:#000000;stroke-width:1px;stroke-opacity:1"
                   id="path38" />
                <path
                   class="point"
                   transform="translate(36.72,393.78)"
                   d="M 4,0 A 4,4 0 1 1 0,-4 4,4 0 0 1 4,0 Z"
                   style="opacity:1;fill:#009afa;fill-opacity:1;stroke:#000000;stroke-width:1px;stroke-opacity:1"
                   id="path39" />
                <path
                   class="point"
                   transform="translate(60.11,383.66)"
                   d="M 4,0 A 4,4 0 1 1 0,-4 4,4 0 0 1 4,0 Z"
                   style="opacity:1;fill:#009afa;fill-opacity:1;stroke:#000000;stroke-width:1px;stroke-opacity:1"
                   id="path40" />
                <path
                   class="point"
                   transform="translate(83.5,375.87)"
                   d="M 4,0 A 4,4 0 1 1 0,-4 4,4 0 0 1 4,0 Z"
                   style="opacity:1;fill:#009afa;fill-opacity:1;stroke:#000000;stroke-width:1px;stroke-opacity:1"
                   id="path41" />
                <path
                   class="point"
                   transform="translate(106.89,369.5)"
                   d="M 4,0 A 4,4 0 1 1 0,-4 4,4 0 0 1 4,0 Z"
                   style="opacity:1;fill:#009afa;fill-opacity:1;stroke:#000000;stroke-width:1px;stroke-opacity:1"
                   id="path42" />
                <path
                   class="point"
                   transform="translate(130.28,365.56)"
                   d="M 4,0 A 4,4 0 1 1 0,-4 4,4 0 0 1 4,0 Z"
                   style="opacity:1;fill:#009afa;fill-opacity:1;stroke:#000000;stroke-width:1px;stroke-opacity:1"
                   id="path43" />
                <path
                   class="point"
                   transform="translate(153.67,358.94)"
                   d="M 4,0 A 4,4 0 1 1 0,-4 4,4 0 0 1 4,0 Z"
                   style="opacity:1;fill:#009afa;fill-opacity:1;stroke:#000000;stroke-width:1px;stroke-opacity:1"
                   id="path44" />
                <path
                   class="point"
                   transform="translate(177.06,352.49)"
                   d="M 4,0 A 4,4 0 1 1 0,-4 4,4 0 0 1 4,0 Z"
                   style="opacity:1;fill:#009afa;fill-opacity:1;stroke:#000000;stroke-width:1px;stroke-opacity:1"
                   id="path45" />
                <path
                   class="point"
                   transform="translate(200.45,347.44)"
                   d="M 4,0 A 4,4 0 1 1 0,-4 4,4 0 0 1 4,0 Z"
                   style="opacity:1;fill:#009afa;fill-opacity:1;stroke:#000000;stroke-width:1px;stroke-opacity:1"
                   id="path46" />
                <path
                   class="point"
                   transform="translate(223.84,340.19)"
                   d="M 4,0 A 4,4 0 1 1 0,-4 4,4 0 0 1 4,0 Z"
                   style="opacity:1;fill:#009afa;fill-opacity:1;stroke:#000000;stroke-width:1px;stroke-opacity:1"
                   id="path47" />
                <path
                   class="point"
                   transform="translate(247.23,341.97)"
                   d="M 4,0 A 4,4 0 1 1 0,-4 4,4 0 0 1 4,0 Z"
                   style="opacity:1;fill:#009afa;fill-opacity:1;stroke:#000000;stroke-width:1px;stroke-opacity:1"
                   id="path48" />
                <path
                   class="point"
                   transform="translate(270.62,343.88)"
                   d="M 4,0 A 4,4 0 1 1 0,-4 4,4 0 0 1 4,0 Z"
                   style="opacity:1;fill:#009afa;fill-opacity:1;stroke:#000000;stroke-width:1px;stroke-opacity:1"
                   id="path49" />
                <path
                   class="point"
                   transform="translate(294.01,343.5)"
                   d="M 4,0 A 4,4 0 1 1 0,-4 4,4 0 0 1 4,0 Z"
                   style="opacity:1;fill:#009afa;fill-opacity:1;stroke:#000000;stroke-width:1px;stroke-opacity:1"
                   id="path50" />
                <path
                   class="point"
                   transform="translate(317.4,342.47)"
                   d="M 4,0 A 4,4 0 1 1 0,-4 4,4 0 0 1 4,0 Z"
                   style="opacity:1;fill:#009afa;fill-opacity:1;stroke:#000000;stroke-width:1px;stroke-opacity:1"
                   id="path51" />
                <path
                   class="point"
                   transform="translate(340.79,342.32)"
                   d="M 4,0 A 4,4 0 1 1 0,-4 4,4 0 0 1 4,0 Z"
                   style="opacity:1;fill:#009afa;fill-opacity:1;stroke:#000000;stroke-width:1px;stroke-opacity:1"
                   id="path52" />
                <path
                   class="point"
                   transform="translate(364.18,341.37)"
                   d="M 4,0 A 4,4 0 1 1 0,-4 4,4 0 0 1 4,0 Z"
                   style="opacity:1;fill:#009afa;fill-opacity:1;stroke:#000000;stroke-width:1px;stroke-opacity:1"
                   id="path53" />
                <path
                   class="point"
                   transform="translate(387.57,340.66)"
                   d="M 4,0 A 4,4 0 1 1 0,-4 4,4 0 0 1 4,0 Z"
                   style="opacity:1;fill:#009afa;fill-opacity:1;stroke:#000000;stroke-width:1px;stroke-opacity:1"
                   id="path54" />
                <path
                   class="point"
                   transform="translate(410.96,341.16)"
                   d="M 4,0 A 4,4 0 1 1 0,-4 4,4 0 0 1 4,0 Z"
                   style="opacity:1;fill:#009afa;fill-opacity:1;stroke:#000000;stroke-width:1px;stroke-opacity:1"
                   id="path55" />
                <path
                   class="point"
                   transform="translate(434.35,340.58)"
                   d="M 4,0 A 4,4 0 1 1 0,-4 4,4 0 0 1 4,0 Z"
                   style="opacity:1;fill:#009afa;fill-opacity:1;stroke:#000000;stroke-width:1px;stroke-opacity:1"
                   id="path56" />
                <path
                   class="point"
                   transform="translate(457.74,339.92)"
                   d="M 4,0 A 4,4 0 1 1 0,-4 4,4 0 0 1 4,0 Z"
                   style="opacity:1;fill:#009afa;fill-opacity:1;stroke:#000000;stroke-width:1px;stroke-opacity:1"
                   id="path57" />
              </g>
              <g
                 class="text"
                 id="g58" />
            </g>
            <g
               class="trace scatter traceed6dea"
               style="opacity:1;stroke-miterlimit:2"
               id="g83">
              <g
                 class="fills"
                 id="g60" />
              <g
                 class="errorbars"
                 id="g61" />
              <g
                 class="lines"
                 id="g62" />
              <g
                 class="points"
                 id="g81">
                <path
                   class="point"
                   transform="translate(13.33,415.51)"
                   d="M 4,0 A 4,4 0 1 1 0,-4 4,4 0 0 1 4,0 Z"
                   style="opacity:1;fill:#e36f47;fill-opacity:1;stroke:#000000;stroke-width:1px;stroke-opacity:1"
                   id="path62" />
                <path
                   class="point"
                   transform="translate(36.72,414.64)"
                   d="M 4,0 A 4,4 0 1 1 0,-4 4,4 0 0 1 4,0 Z"
                   style="opacity:1;fill:#e36f47;fill-opacity:1;stroke:#000000;stroke-width:1px;stroke-opacity:1"
                   id="path63" />
                <path
                   class="point"
                   transform="translate(60.11,413.24)"
                   d="M 4,0 A 4,4 0 1 1 0,-4 4,4 0 0 1 4,0 Z"
                   style="opacity:1;fill:#e36f47;fill-opacity:1;stroke:#000000;stroke-width:1px;stroke-opacity:1"
                   id="path64" />
                <path
                   class="point"
                   transform="translate(83.5,411.03)"
                   d="M 4,0 A 4,4 0 1 1 0,-4 4,4 0 0 1 4,0 Z"
                   style="opacity:1;fill:#e36f47;fill-opacity:1;stroke:#000000;stroke-width:1px;stroke-opacity:1"
                   id="path65" />
                <path
                   class="point"
                   transform="translate(106.89,408.65)"
                   d="M 4,0 A 4,4 0 1 1 0,-4 4,4 0 0 1 4,0 Z"
                   style="opacity:1;fill:#e36f47;fill-opacity:1;stroke:#000000;stroke-width:1px;stroke-opacity:1"
                   id="path66" />
                <path
                   class="point"
                   transform="translate(130.28,408.13)"
                   d="M 4,0 A 4,4 0 1 1 0,-4 4,4 0 0 1 4,0 Z"
                   style="opacity:1;fill:#e36f47;fill-opacity:1;stroke:#000000;stroke-width:1px;stroke-opacity:1"
                   id="path67" />
                <path
                   class="point"
                   transform="translate(153.67,405.94)"
                   d="M 4,0 A 4,4 0 1 1 0,-4 4,4 0 0 1 4,0 Z"
                   style="opacity:1;fill:#e36f47;fill-opacity:1;stroke:#000000;stroke-width:1px;stroke-opacity:1"
                   id="path68" />
                <path
                   class="point"
                   transform="translate(177.06,402.29)"
                   d="M 4,0 A 4,4 0 1 1 0,-4 4,4 0 0 1 4,0 Z"
                   style="opacity:1;fill:#e36f47;fill-opacity:1;stroke:#000000;stroke-width:1px;stroke-opacity:1"
                   id="path69" />
                <path
                   class="point"
                   transform="translate(200.45,401)"
                   d="M 4,0 A 4,4 0 1 1 0,-4 4,4 0 0 1 4,0 Z"
                   style="opacity:1;fill:#e36f47;fill-opacity:1;stroke:#000000;stroke-width:1px;stroke-opacity:1"
                   id="path70" />
                <path
                   class="point"
                   transform="translate(223.84,399.23)"
                   d="M 4,0 A 4,4 0 1 1 0,-4 4,4 0 0 1 4,0 Z"
                   style="opacity:1;fill:#e36f47;fill-opacity:1;stroke:#000000;stroke-width:1px;stroke-opacity:1"
                   id="path71" />
                <path
                   class="point"
                   transform="translate(247.23,398.74)"
                   d="M 4,0 A 4,4 0 1 1 0,-4 4,4 0 0 1 4,0 Z"
                   style="opacity:1;fill:#e36f47;fill-opacity:1;stroke:#000000;stroke-width:1px;stroke-opacity:1"
                   id="path72" />
                <path
                   class="point"
                   transform="translate(270.62,397.39)"
                   d="M 4,0 A 4,4 0 1 1 0,-4 4,4 0 0 1 4,0 Z"
                   style="opacity:1;fill:#e36f47;fill-opacity:1;stroke:#000000;stroke-width:1px;stroke-opacity:1"
                   id="path73" />
                <path
                   class="point"
                   transform="translate(294.01,392.92)"
                   d="M 4,0 A 4,4 0 1 1 0,-4 4,4 0 0 1 4,0 Z"
                   style="opacity:1;fill:#e36f47;fill-opacity:1;stroke:#000000;stroke-width:1px;stroke-opacity:1"
                   id="path74" />
                <path
                   class="point"
                   transform="translate(317.4,391.49)"
                   d="M 4,0 A 4,4 0 1 1 0,-4 4,4 0 0 1 4,0 Z"
                   style="opacity:1;fill:#e36f47;fill-opacity:1;stroke:#000000;stroke-width:1px;stroke-opacity:1"
                   id="path75" />
                <path
                   class="point"
                   transform="translate(340.79,390.26)"
                   d="M 4,0 A 4,4 0 1 1 0,-4 4,4 0 0 1 4,0 Z"
                   style="opacity:1;fill:#e36f47;fill-opacity:1;stroke:#000000;stroke-width:1px;stroke-opacity:1"
                   id="path76" />
                <path
                   class="point"
                   transform="translate(364.18,390.21)"
                   d="M 4,0 A 4,4 0 1 1 0,-4 4,4 0 0 1 4,0 Z"
                   style="opacity:1;fill:#e36f47;fill-opacity:1;stroke:#000000;stroke-width:1px;stroke-opacity:1"
                   id="path77" />
                <path
                   class="point"
                   transform="translate(387.57,387.36)"
                   d="M 4,0 A 4,4 0 1 1 0,-4 4,4 0 0 1 4,0 Z"
                   style="opacity:1;fill:#e36f47;fill-opacity:1;stroke:#000000;stroke-width:1px;stroke-opacity:1"
                   id="path78" />
                <path
                   class="point"
                   transform="translate(410.96,383.94)"
                   d="M 4,0 A 4,4 0 1 1 0,-4 4,4 0 0 1 4,0 Z"
                   style="opacity:1;fill:#e36f47;fill-opacity:1;stroke:#000000;stroke-width:1px;stroke-opacity:1"
                   id="path79" />
                <path
                   class="point"
                   transform="translate(434.35,383)"
                   d="M 4,0 A 4,4 0 1 1 0,-4 4,4 0 0 1 4,0 Z"
                   style="opacity:1;fill:#e36f47;fill-opacity:1;stroke:#000000;stroke-width:1px;stroke-opacity:1"
                   id="path80" />
                <path
                   class="point"
                   transform="translate(457.74,382.88)"
                   d="M 4,0 A 4,4 0 1 1 0,-4 4,4 0 0 1 4,0 Z"
                   style="opacity:1;fill:#e36f47;fill-opacity:1;stroke:#000000;stroke-width:1px;stroke-opacity:1"
                   id="path81" />
              </g>
              <g
                 class="text"
                 id="g82" />
            </g>
            <g
               class="trace scatter trace73f11b"
               style="opacity:1;stroke-miterlimit:2"
               id="g107">
              <g
                 class="fills"
                 id="g84" />
              <g
                 class="errorbars"
                 id="g85" />
              <g
                 class="lines"
                 id="g86" />
              <g
                 class="points"
                 id="g105">
                <path
                   class="point"
                   transform="translate(13.33,411.37)"
                   d="M 4,0 A 4,4 0 1 1 0,-4 4,4 0 0 1 4,0 Z"
                   style="opacity:1;fill:#3ea44e;fill-opacity:1;stroke:#000000;stroke-width:1px;stroke-opacity:1"
                   id="path86" />
                <path
                   class="point"
                   transform="translate(36.72,400.6)"
                   d="M 4,0 A 4,4 0 1 1 0,-4 4,4 0 0 1 4,0 Z"
                   style="opacity:1;fill:#3ea44e;fill-opacity:1;stroke:#000000;stroke-width:1px;stroke-opacity:1"
                   id="path87" />
                <path
                   class="point"
                   transform="translate(60.11,387.95)"
                   d="M 4,0 A 4,4 0 1 1 0,-4 4,4 0 0 1 4,0 Z"
                   style="opacity:1;fill:#3ea44e;fill-opacity:1;stroke:#000000;stroke-width:1px;stroke-opacity:1"
                   id="path88" />
                <path
                   class="point"
                   transform="translate(83.5,372.15)"
                   d="M 4,0 A 4,4 0 1 1 0,-4 4,4 0 0 1 4,0 Z"
                   style="opacity:1;fill:#3ea44e;fill-opacity:1;stroke:#000000;stroke-width:1px;stroke-opacity:1"
                   id="path89" />
                <path
                   class="point"
                   transform="translate(106.89,357.45)"
                   d="M 4,0 A 4,4 0 1 1 0,-4 4,4 0 0 1 4,0 Z"
                   style="opacity:1;fill:#3ea44e;fill-opacity:1;stroke:#000000;stroke-width:1px;stroke-opacity:1"
                   id="path90" />
                <path
                   class="point"
                   transform="translate(130.28,340.15)"
                   d="M 4,0 A 4,4 0 1 1 0,-4 4,4 0 0 1 4,0 Z"
                   style="opacity:1;fill:#3ea44e;fill-opacity:1;stroke:#000000;stroke-width:1px;stroke-opacity:1"
                   id="path91" />
                <path
                   class="point"
                   transform="translate(153.67,317.6)"
                   d="M 4,0 A 4,4 0 1 1 0,-4 4,4 0 0 1 4,0 Z"
                   style="opacity:1;fill:#3ea44e;fill-opacity:1;stroke:#000000;stroke-width:1px;stroke-opacity:1"
                   id="path92" />
                <path
                   class="point"
                   transform="translate(177.06,295.85)"
                   d="M 4,0 A 4,4 0 1 1 0,-4 4,4 0 0 1 4,0 Z"
                   style="opacity:1;fill:#3ea44e;fill-opacity:1;stroke:#000000;stroke-width:1px;stroke-opacity:1"
                   id="path93" />
                <path
                   class="point"
                   transform="translate(200.45,275.34)"
                   d="M 4,0 A 4,4 0 1 1 0,-4 4,4 0 0 1 4,0 Z"
                   style="opacity:1;fill:#3ea44e;fill-opacity:1;stroke:#000000;stroke-width:1px;stroke-opacity:1"
                   id="path94" />
                <path
                   class="point"
                   transform="translate(223.84,262.54)"
                   d="M 4,0 A 4,4 0 1 1 0,-4 4,4 0 0 1 4,0 Z"
                   style="opacity:1;fill:#3ea44e;fill-opacity:1;stroke:#000000;stroke-width:1px;stroke-opacity:1"
                   id="path95" />
                <path
                   class="point"
                   transform="translate(247.23,243.32)"
                   d="M 4,0 A 4,4 0 1 1 0,-4 4,4 0 0 1 4,0 Z"
                   style="opacity:1;fill:#3ea44e;fill-opacity:1;stroke:#000000;stroke-width:1px;stroke-opacity:1"
                   id="path96" />
                <path
                   class="point"
                   transform="translate(270.62,221.75)"
                   d="M 4,0 A 4,4 0 1 1 0,-4 4,4 0 0 1 4,0 Z"
                   style="opacity:1;fill:#3ea44e;fill-opacity:1;stroke:#000000;stroke-width:1px;stroke-opacity:1"
                   id="path97" />
                <path
                   class="point"
                   transform="translate(294.01,193.43)"
                   d="M 4,0 A 4,4 0 1 1 0,-4 4,4 0 0 1 4,0 Z"
                   style="opacity:1;fill:#3ea44e;fill-opacity:1;stroke:#000000;stroke-width:1px;stroke-opacity:1"
                   id="path98" />
                <path
                   class="point"
                   transform="translate(317.4,167.46)"
                   d="M 4,0 A 4,4 0 1 1 0,-4 4,4 0 0 1 4,0 Z"
                   style="opacity:1;fill:#3ea44e;fill-opacity:1;stroke:#000000;stroke-width:1px;stroke-opacity:1"
                   id="path99" />
                <path
                   class="point"
                   transform="translate(340.79,141.78)"
                   d="M 4,0 A 4,4 0 1 1 0,-4 4,4 0 0 1 4,0 Z"
                   style="opacity:1;fill:#3ea44e;fill-opacity:1;stroke:#000000;stroke-width:1px;stroke-opacity:1"
                   id="path100" />
                <path
                   class="point"
                   transform="translate(364.18,118.71)"
                   d="M 4,0 A 4,4 0 1 1 0,-4 4,4 0 0 1 4,0 Z"
                   style="opacity:1;fill:#3ea44e;fill-opacity:1;stroke:#000000;stroke-width:1px;stroke-opacity:1"
                   id="path101" />
                <path
                   class="point"
                   transform="translate(387.57,87)"
                   d="M 4,0 A 4,4 0 1 1 0,-4 4,4 0 0 1 4,0 Z"
                   style="opacity:1;fill:#3ea44e;fill-opacity:1;stroke:#000000;stroke-width:1px;stroke-opacity:1"
                   id="path102" />
                <path
                   class="point"
                   transform="translate(410.96,59.93)"
                   d="M 4,0 A 4,4 0 1 1 0,-4 4,4 0 0 1 4,0 Z"
                   style="opacity:1;fill:#3ea44e;fill-opacity:1;stroke:#000000;stroke-width:1px;stroke-opacity:1"
                   id="path103" />
                <path
                   class="point"
                   transform="translate(434.35,38.38)"
                   d="M 4,0 A 4,4 0 1 1 0,-4 4,4 0 0 1 4,0 Z"
                   style="opacity:1;fill:#3ea44e;fill-opacity:1;stroke:#000000;stroke-width:1px;stroke-opacity:1"
                   id="path104" />
                <path
                   class="point"
                   transform="translate(457.74,12.1)"
                   d="M 4,0 A 4,4 0 1 1 0,-4 4,4 0 0 1 4,0 Z"
                   style="opacity:1;fill:#3ea44e;fill-opacity:1;stroke:#000000;stroke-width:1px;stroke-opacity:1"
                   id="path105" />
              </g>
              <g
                 class="text"
                 id="g106" />
            </g>
            <g
               class="trace scatter traceb40222"
               style="opacity:1;stroke-miterlimit:2"
               id="g113">
              <g
                 class="fills"
                 id="g108" />
              <g
                 class="errorbars"
                 id="g109" />
              <g
                 class="lines"
                 id="g110">
                <path
                   class="js-line"
                   d="m 13.33,404.62 46.78,-20.96 23.39,-7.79 23.39,-6.37 23.39,-3.94 46.78,-13.07 23.39,-5.05 23.39,-7.25 23.39,1.78 23.39,1.91 23.39,-0.38 23.39,-1.03 23.39,-0.15 46.78,-1.66 23.39,0.5 46.78,-1.24"
                   style="opacity:1;vector-effect:none;fill:none;stroke:#009afa;stroke-width:2px;stroke-opacity:1"
                   id="path109" />
              </g>
              <g
                 class="points"
                 id="g111" />
              <g
                 class="text"
                 id="g112" />
            </g>
            <g
               class="trace scatter trace3997d8"
               style="opacity:1;stroke-miterlimit:2"
               id="g119">
              <g
                 class="fills"
                 id="g114" />
              <g
                 class="errorbars"
                 id="g115" />
              <g
                 class="lines"
                 id="g116">
                <path
                   class="js-line"
                   d="m 13.33,415.51 46.78,-2.27 23.39,-2.21 23.39,-2.38 23.39,-0.52 23.39,-2.19 23.39,-3.65 46.78,-3.06 23.39,-0.49 23.39,-1.35 23.39,-4.47 46.78,-2.66 23.39,-0.05 46.78,-6.27 23.39,-0.94 23.39,-0.12"
                   style="opacity:1;vector-effect:none;fill:none;stroke:#e36f47;stroke-width:2px;stroke-opacity:1"
                   id="path115" />
              </g>
              <g
                 class="points"
                 id="g117" />
              <g
                 class="text"
                 id="g118" />
            </g>
            <g
               class="trace scatter trace74c0ff"
               style="opacity:1;stroke-miterlimit:2"
               id="g125">
              <g
                 class="fills"
                 id="g120" />
              <g
                 class="errorbars"
                 id="g121" />
              <g
                 class="lines"
                 id="g122">
                <path
                   class="js-line"
                   d="m 13.33,411.37 23.39,-10.77 23.39,-12.65 23.39,-15.8 23.39,-14.7 23.39,-17.3 23.39,-22.55 23.39,-21.75 23.39,-20.51 23.39,-12.8 23.39,-19.22 23.39,-21.57 23.39,-28.32 46.78,-51.65 23.39,-23.07 L 387.57,87 410.96,59.93 434.35,38.38 457.74,12.1"
                   style="opacity:1;vector-effect:none;fill:none;stroke:#3ea44e;stroke-width:2px;stroke-opacity:1"
                   id="path121" />
              </g>
              <g
                 class="points"
                 id="g123" />
              <g
                 class="text"
                 id="g124" />
            </g>
          </g>
        </g>
      </g>
      <path
         class="xlines-above crisp"
         d="M 35.992563,464.54331 H 508.06299"
         style="fill:none;stroke:#000000;stroke-width:1px;stroke-opacity:1"
         id="path128" />
      <path
         class="ylines-above crisp"
         d="M 36.492563,36.433249 V 464.04331"
         style="fill:none;stroke:#000000;stroke-width:1px;stroke-opacity:1"
         id="path129" />
      <g
         class="overlines-above"
         id="g129" />
      <g
         class="xaxislayer-above"
         id="g141">
        <path
           class="xtick ticks crisp"
           d="m 0,464.04331 v -5"
           transform="translate(104.90256)"
           style="stroke:#000000;stroke-width:1px;stroke-opacity:1"
           id="path130" />
        <path
           class="xtick ticks crisp"
           d="m 0,464.04331 v -5"
           transform="translate(182.86256)"
           style="stroke:#000000;stroke-width:1px;stroke-opacity:1"
           id="path131" />
        <path
           class="xtick ticks crisp"
           d="m 0,464.04331 v -5"
           transform="translate(260.83256)"
           style="stroke:#000000;stroke-width:1px;stroke-opacity:1"
           id="path132" />
        <path
           class="xtick ticks crisp"
           d="m 0,464.04331 v -5"
           transform="translate(338.80256)"
           style="stroke:#000000;stroke-width:1px;stroke-opacity:1"
           id="path133" />
        <path
           class="xtick ticks crisp"
           d="m 0,464.04331 v -5"
           transform="translate(416.76256)"
           style="stroke:#000000;stroke-width:1px;stroke-opacity:1"
           id="path134" />
        <path
           class="xtick ticks crisp"
           d="m 0,464.04331 v -5"
           transform="translate(494.73256)"
           style="stroke:#000000;stroke-width:1px;stroke-opacity:1"
           id="path135" />
        <g
           class="xtick"
           id="g135">
          <text
             text-anchor="middle"
             x="0"
             y="478.24332"
             transform="translate(104.90256)"
             style="font-size:11px;font-family:sans-serif;white-space:pre;opacity:1;fill:#000000;fill-opacity:1"
             id="text135">1000</text>
        </g>
        <g
           class="xtick"
           id="g136">
          <text
             text-anchor="middle"
             x="0"
             y="478.24332"
             style="font-size:11px;font-family:sans-serif;white-space:pre;opacity:1;fill:#000000;fill-opacity:1"
             transform="translate(182.86256)"
             id="text136">2000</text>
        </g>
        <g
           class="xtick"
           id="g137">
          <text
             text-anchor="middle"
             x="0"
             y="478.24332"
             style="font-size:11px;font-family:sans-serif;white-space:pre;opacity:1;fill:#000000;fill-opacity:1"
             transform="translate(260.83256)"
             id="text137">3000</text>
        </g>
        <g
           class="xtick"
           id="g138">
          <text
             text-anchor="middle"
             x="0"
             y="478.24332"
             style="font-size:11px;font-family:sans-serif;white-space:pre;opacity:1;fill:#000000;fill-opacity:1"
             transform="translate(338.80256)"
             id="text138">4000</text>
        </g>
        <g
           class="xtick"
           id="g139">
          <text
             text-anchor="middle"
             x="0"
             y="478.24332"
             style="font-size:11px;font-family:sans-serif;white-space:pre;opacity:1;fill:#000000;fill-opacity:1"
             transform="translate(416.76256)"
             id="text139">5000</text>
        </g>
        <g
           class="xtick"
           id="g140">
          <text
             text-anchor="middle"
             x="0"
             y="478.24332"
             style="font-size:11px;font-family:sans-serif;white-space:pre;opacity:1;fill:#000000;fill-opacity:1"
             transform="translate(494.73256)"
             id="text140">6000</text>
        </g>
      </g>
      <g
         class="yaxislayer-above"
         id="g148">
        <path
           class="ytick ticks crisp"
           d="m 36.992563,0 h 5"
           transform="translate(0,453.92325)"
           style="stroke:#000000;stroke-width:1px;stroke-opacity:1"
           id="path141" />
        <path
           class="ytick ticks crisp"
           d="m 36.992563,0 h 5"
           transform="translate(0,316.60325)"
           style="stroke:#000000;stroke-width:1px;stroke-opacity:1"
           id="path142" />
        <path
           class="ytick ticks crisp"
           d="m 36.992563,0 h 5"
           transform="translate(0,179.29325)"
           style="stroke:#000000;stroke-width:1px;stroke-opacity:1"
           id="path143" />
        <path
           class="ytick ticks crisp"
           d="m 36.992563,0 h 5"
           transform="translate(0,41.973249)"
           style="stroke:#000000;stroke-width:1px;stroke-opacity:1"
           id="path144" />
        <g
           class="ytick"
           id="g144">
          <text
             text-anchor="end"
             x="33.792564"
             y="3.8499999"
             transform="translate(0,453.92325)"
             style="font-size:11px;font-family:sans-serif;white-space:pre;opacity:1;fill:#000000;fill-opacity:1"
             id="text144">0</text>
        </g>
        <g
           class="ytick"
           id="g145">
          <text
             text-anchor="end"
             x="33.792564"
             y="3.8499999"
             style="font-size:11px;font-family:sans-serif;white-space:pre;opacity:1;fill:#000000;fill-opacity:1"
             transform="translate(0,316.60325)"
             id="text145">5</text>
        </g>
        <g
           class="ytick"
           id="g146">
          <text
             text-anchor="end"
             x="33.792564"
             y="3.8499999"
             style="font-size:11px;font-family:sans-serif;white-space:pre;opacity:1;fill:#000000;fill-opacity:1"
             transform="translate(0,179.29325)"
             id="text146">10</text>
        </g>
        <g
           class="ytick"
           id="g147">
          <text
             text-anchor="end"
             x="33.792564"
             y="3.8499999"
             style="font-size:11px;font-family:sans-serif;white-space:pre;opacity:1;fill:#000000;fill-opacity:1"
             transform="translate(0,41.973249)"
             id="text147">15</text>
        </g>
      </g>
      <g
         class="overaxes-above"
         id="g149" />
    </g>
  </g>
  <g
     class="polarlayer"
     id="g152"
     transform="translate(-2.945384,-36)" />
  <g
     class="smithlayer"
     id="g153"
     transform="translate(-2.945384,-36)" />
  <g
     class="ternarylayer"
     id="g154"
     transform="translate(-2.945384,-36)" />
  <g
     class="geolayer"
     id="g155"
     transform="translate(-2.945384,-36)" />
  <g
     class="funnelarealayer"
     id="g156"
     transform="translate(-2.945384,-36)" />
  <g
     class="pielayer"
     id="g157"
     transform="translate(-2.945384,-36)" />
  <g
     class="iciclelayer"
     id="g158"
     transform="translate(-2.945384,-36)" />
  <g
     class="treemaplayer"
     id="g159"
     transform="translate(-2.945384,-36)" />
  <g
     class="sunburstlayer"
     id="g160"
     transform="translate(-2.945384,-36)" />
  <g
     class="glimages"
     id="g161"
     transform="translate(-2.945384,-36)" />
  <defs
     id="topdefs-1eec54">
    <g
       class="clips"
       id="g162" />
    <clipPath
       id="legend1eec54">
      <rect
         width="94"
         height="67"
         x="1"
         y="1"
         id="rect162" />
    </clipPath>
  </defs>
  <g
     class="layer-above"
     id="g165"
     transform="translate(-2.945384,-36)">
    <g
       class="imagelayer"
       id="g163" />
    <g
       class="shapelayer"
       id="g164" />
  </g>
  <g
     class="legend"
     pointer-events="all"
     transform="translate(52.894616,168.06)"
     id="g186">
    <rect
       class="bg"
       shape-rendering="crispEdges"
       width="95"
       height="68"
       x="0.5"
       y="0.5"
       style="fill:#ffffff;fill-opacity:1;stroke:#000000;stroke-width:1px;stroke-opacity:1"
       id="rect165" />
    <g
       class="scrollbox"
       clip-path="url(#legend1eec54)"
       id="g185">
      <g
         class="groups"
         id="g184"
         transform="translate(-4)">
        <g
           class="traces"
           transform="translate(1,15.5)"
           style="opacity:1"
           id="g171">
          <text
             class="legendtext"
             text-anchor="start"
             x="40"
             y="4.29"
             style="font-size:11px;font-family:sans-serif;white-space:pre;fill:#000000;fill-opacity:1"
             id="text165">Iteridense</text>
          <g
             class="layers"
             style="opacity:1"
             id="g170">
            <g
               class="legendfill"
               id="g166" />
            <g
               class="legendlines"
               id="g167" />
            <g
               class="legendsymbols"
               id="g169">
              <g
                 class="legendpoints"
                 id="g168">
                <path
                   class="scatterpts"
                   transform="translate(20)"
                   d="M 4,0 A 4,4 0 1 1 0,-4 4,4 0 0 1 4,0 Z"
                   style="opacity:1;fill:#009afa;fill-opacity:1;stroke:#000000;stroke-width:1px;stroke-opacity:1"
                   id="path167" />
              </g>
            </g>
          </g>
          <rect
             class="legendtoggle"
             x="0"
             y="-9.5"
             width="88.3125"
             height="19"
             style="fill:#000000;fill-opacity:0"
             id="rect170" />
        </g>
        <g
           class="traces"
           transform="translate(1,34.5)"
           style="opacity:1"
           id="g177">
          <text
             class="legendtext"
             text-anchor="start"
             x="40"
             y="4.29"
             style="font-size:11px;font-family:sans-serif;white-space:pre;fill:#000000;fill-opacity:1"
             id="text171">k-means</text>
          <g
             class="layers"
             style="opacity:1"
             id="g176">
            <g
               class="legendfill"
               id="g172" />
            <g
               class="legendlines"
               id="g173" />
            <g
               class="legendsymbols"
               id="g175">
              <g
                 class="legendpoints"
                 id="g174">
                <path
                   class="scatterpts"
                   transform="translate(20)"
                   d="M 4,0 A 4,4 0 1 1 0,-4 4,4 0 0 1 4,0 Z"
                   style="opacity:1;fill:#e36f47;fill-opacity:1;stroke:#000000;stroke-width:1px;stroke-opacity:1"
                   id="path173" />
              </g>
            </g>
          </g>
          <rect
             class="legendtoggle"
             x="0"
             y="-9.5"
             width="88.3125"
             height="19"
             style="fill:#000000;fill-opacity:0"
             id="rect176" />
        </g>
        <g
           class="traces"
           transform="translate(1,53.5)"
           style="opacity:1"
           id="g183">
          <text
             class="legendtext"
             text-anchor="start"
             x="40"
             y="4.29"
             style="font-size:11px;font-family:sans-serif;white-space:pre;fill:#000000;fill-opacity:1"
             id="text177">DBSCAN</text>
          <g
             class="layers"
             style="opacity:1"
             id="g182">
            <g
               class="legendfill"
               id="g178" />
            <g
               class="legendlines"
               id="g179" />
            <g
               class="legendsymbols"
               id="g181">
              <g
                 class="legendpoints"
                 id="g180">
                <path
                   class="scatterpts"
                   transform="translate(20)"
                   d="M 4,0 A 4,4 0 1 1 0,-4 4,4 0 0 1 4,0 Z"
                   style="opacity:1;fill:#3ea44e;fill-opacity:1;stroke:#000000;stroke-width:1px;stroke-opacity:1"
                   id="path179" />
              </g>
            </g>
          </g>
          <rect
             class="legendtoggle"
             x="0"
             y="-9.5"
             width="88.3125"
             height="19"
             style="fill:#000000;fill-opacity:0"
             id="rect182" />
        </g>
      </g>
    </g>
    <rect
       class="scrollbar"
       rx="20"
       ry="3"
       width="0"
       height="0"
       x="0"
       y="0"
       style="fill:#808ba4;fill-opacity:1"
       id="rect185" />
  </g>
  <g
     class="g-gtitle"
     id="g187"
     transform="translate(-2.945384,-36)" />
  <g
     class="g-xtitle"
     transform="translate(-2.945384,-54.043314)"
     id="g188">
    <text
       class="xtitle"
       x="272.52777"
       y="519.04333"
       text-anchor="middle"
       style="font-size:15px;font-family:sans-serif;white-space:pre;opacity:1;fill:#000000;fill-opacity:1"
       id="text187">N</text>
  </g>
  <g
     class="g-ytitle"
     transform="translate(14.062428,-36)"
     id="g189">
    <text
       class="ytitle"
       transform="rotate(-90,-3.0074366,250.23828)"
       x="-3.0074365"
       y="250.23828"
       text-anchor="middle"
       style="font-size:15px;font-family:sans-serif;white-space:pre;opacity:1;fill:#000000;fill-opacity:1"
       id="text188">time in s</text>
  </g>
  <g
     class="annotation"
     data-index="0"
     id="g192"
     transform="translate(-2.945384,-20)">
    <g
       class="annotation-text-g"
       id="g191">
      <g
         class="cursor-pointer"
         transform="translate(172,20)"
         id="g190">
        <rect
           class="bg"
           x="0.5"
           y="0.5"
           width="201"
           height="19"
           style="fill:#000000;fill-opacity:0;stroke:#000000;stroke-width:1px;stroke-opacity:0"
           id="rect189" />
        <text
           class="annotation-text"
           text-anchor="middle"
           x="100.82031"
           y="15"
           style="font-size:14px;font-family:sans-serif;white-space:pre;fill:#000000;fill-opacity:1"
           id="text189">Calculation time comparison 3D</text>
      </g>
    </g>
  </g>
</svg>
